<?xml version="1.0" encoding="utf-8"?>
<!-- Generator: Adobe Illustrator 22.1.0, SVG Export Plug-In . SVG Version: 6.00 Build 0)  -->
<svg version="1.1" id="Layer_1" xmlns="http://www.w3.org/2000/svg" xmlns:xlink="http://www.w3.org/1999/xlink" x="0px" y="0px"
	 viewBox="0 0 595.3 841.9" style="enable-background:new 0 0 595.3 841.9;" xml:space="preserve">
<style type="text/css">
	.st0{fill:#298540;}
	.st1{fill:#751113;}
</style>
<g>
	<path class="st0" d="M78.9,236.6c-1.5-0.9-2.6-2.1-3.5-3.6c-0.9-1.5-1.6-3-2.2-4.7c-0.6-1.7-1-3.4-1.4-5.2
		c-0.4-1.8-0.8-3.6-1.2-5.2c0-1.5,0.3-2.5,0.9-3.2c0.6-0.7,1.3-1.3,2-2c2.5-0.1,4.7-0.3,6.7-0.6c2-0.3,3.9-0.6,5.8-0.9
		c1.9-0.3,3.8-0.6,5.6-0.9c1.9-0.3,3.9-0.4,6.1-0.4c1.6-3.2,3-6.3,4.4-9.3c1.4-3,2.7-5.8,3.9-8.5c0.6-2.6,1.4-5,2.4-7.3
		c1-2.2,2-4.4,2.9-6.4s1.8-4.1,2.5-6.1c0.7-2,1.2-4.2,1.4-6.5c1.3-3.6,2.4-7,3.4-10.1c1-3.1,1.7-6.7,2.3-11c-4,0.6-7.1,1.2-9.5,1.8
		c-2.4,0.6-4.1,1.1-5.2,1.6c-2.1-0.1-3.7-0.5-4.9-1.3c-1.2-0.7-2.2-1.6-2.9-2.7c-0.7-1-1.4-2.2-1.9-3.6c-0.5-1.4-1.1-2.8-1.9-4.2
		c0.4-0.9,0.5-2.3,0.3-4.1c-0.2-1.8-0.8-3.2-1.9-4c0.8-0.2,1.5-0.9,1.9-2.1c0.4-1.2,0.5-2.1,0.2-2.7c1.8-0.5,3.6-0.9,5.6-1
		c2-0.2,3.9-0.3,5.9-0.5c1.9-0.2,3.8-0.4,5.6-0.6c1.8-0.3,3.3-0.8,4.5-1.6c5.4-0.2,11.1-0.4,17-0.6c5.9-0.2,11.3-0.5,16.3-0.8
		c1.9,0.6,4,0.9,6.5,0.9c2.4,0,4.9,0.2,7.4,0.5c2.4,0.3,4.6,1,6.6,2c1.9,1,3.3,2.9,4,5.5c1.6,0.2,2.7,0.6,3.5,1.3
		c0.8,0.6,1.3,1.4,1.5,2.3c0.2,0.9,0.3,1.9,0.2,3c-0.1,1.1-0.1,2.2-0.1,3.2c-1.7,1.3-3.8,2.3-6.3,3c-2.6,0.8-5.3,1.4-8.4,1.9
		c-3,0.5-6.2,0.8-9.5,0.9s-6.5,0.3-9.6,0.4c-0.5,3.4-1.4,7.5-2.7,12.1c-1.3,4.6-2.6,9.2-4,13.6c-1.4,4.4-2.5,8.4-3.5,11.9
		c-1,3.5-1.4,5.8-1.3,6.8c-1,2.4-1.9,4.4-2.6,6.1c-0.7,1.7-1.3,3.2-1.9,4.7c-0.6,1.5-1.1,2.9-1.7,4.3c-0.6,1.4-1.3,3-2.1,4.8h10.6
		c0.2,1.1,0.7,1.9,1.4,2.3c0.7,0.4,1.5,0.8,2.3,1.1c0.8,0.3,1.6,0.7,2.3,1.2c0.7,0.5,1,1.2,1,2.3c2,0.5,3.2,1.3,3.8,2.3
		c0.5,1,0.6,2.2,0.4,3.4c-0.3,1.2-0.8,2.4-1.6,3.7c-0.8,1.3-1.5,2.3-2.3,3.3c-0.9-0.2-1.8,0-2.7,0.7c-0.8,0.7-1.6,1.4-2.3,2.3
		c-3-0.4-6-0.5-8.9-0.2c-2.9,0.3-5.6,0.6-8.1,0.8c-0.5,0.1-0.7,0.4-0.6,0.9c0.1,0.5,0,0.8-0.3,1c-3.2-1-6.5-1.5-9.9-1.3
		c-3.4,0.2-6.8,0.7-10.3,1.5c-3.5,0.8-7.1,1.6-10.7,2.5C86.3,236,82.6,236.5,78.9,236.6z"/>
	<path class="st1" d="M286,201c0.8,1.3,1.2,3,1.2,5.3c0,4.2-1,7.5-3,9.9c-6,7.2-11.8,12.2-17.4,15.1s-12.4,4.3-20.3,4.3
		c-5.6,0-10.7-0.7-15.4-2.1c-4.7-1.4-10.4-3.5-17.1-6.2c-6.1-2.7-12-4.9-17.6-6.6c-5.4,9.9-13.6,14.9-24.5,14.9
		c-6,0-10.8-1.4-14.3-4.1s-5.4-6.2-5.4-10.5c0-5.2,2.5-9.6,7.5-13.1c5-3.5,11.7-5.2,20-5.2h2.1l2.9-46.6c0.6-10.7,2.6-19.5,5.8-26.4
		c3.2-6.9,7.6-12.9,13.3-17.8c4.9-4.3,10.5-7.5,16.8-9.7c6.3-2.2,13-3.3,20-3.3c11.5,0,20.4,3,26.6,9c6.2,6,9.3,13.8,9.3,23.4
		c0,6.5-1.2,11.8-3.5,15.8c-2.3,4-5.6,6-9.8,6c-3,0-5.3-0.7-7-2.2c-1.7-1.4-2.6-3.5-2.6-6.2c0-1,0.2-2.7,0.6-5.3c0.6-3,1-5.7,1-8
		c0-4.5-1.3-8-3.9-10.7c-2.6-2.6-6.6-3.9-11.9-3.9c-9.4,0-16.7,3.1-21.8,9.2c-5.1,6.1-8.4,15.8-9.8,28.9l-3.7,36.4
		c-0.5,5.1-1.2,9.6-2.1,13.3c6.8,1.2,15.4,3,25.6,5.6c6,1.5,10.6,2.6,13.8,3.2s6,1,8.5,1c6.2,0,11.5-1,15.9-3.1
		c4.4-2.1,8.6-5.4,12.6-10c1.3-1.5,2.7-2.2,4.3-2.2C284.1,199,285.2,199.7,286,201z"/>
	<path class="st1" d="M299.4,228.1c-4.6-5-6.9-11.6-6.9-19.9c0-4.7,0.7-10.4,2.1-17.1l9.9-45.8c0.2-0.9,0.7-3.2,1.5-7
		s1.2-8,1.2-12.5c0-2.6-0.5-4.5-1.5-5.8c-1-1.3-2.4-1.9-4.1-1.9c-3.2,0-6.9,1.5-11.2,4.6c-4.3,3-8.8,7.7-13.5,14c-1.5,2-3.2,3-5,3
		c-1.5,0-2.8-0.7-3.9-2.2s-1.7-3.1-1.7-4.9c0-3.3,1.5-7,4.5-11.2c10.9-14.9,23.6-22.4,38.3-22.4c6.5,0,11.6,2,15.3,5.9
		c3.7,4,5.5,9.8,5.5,17.5c0,5.4-0.4,10.5-1.1,15.1c-0.7,4.6-2,10.8-3.8,18.7l-6.6,29.3c-0.2,1-0.6,2.7-1.1,5.1c-0.5,2.5-1,4.8-1.3,7
		c-0.3,2.2-0.5,4.4-0.5,6.5c0,3.4,1,6.1,2.9,8.2c1.9,2,4.6,3,8.2,3c6.4,0,12.9-3.4,19.5-10.3c6.6-6.8,12.7-17.9,18.3-33.1
		c5.6-15.2,10-34.7,13.1-58.4c0.7-5.4,1.8-9.2,3.3-11.4c1.4-2.1,4.2-3.2,8.4-3.2c3.7,0,6.5,1.1,8.3,3.4c1.8,2.2,2.7,5.9,2.7,10.9
		c0,2.9-0.3,6.7-1,11.4c-0.7,4.7-1.7,11.3-3.1,19.7c-2.9,16.3-5.2,31.3-6.9,45c-0.9,6.2-1.3,10.8-1.3,13.8c0,4.4,1,7.7,3,10
		c2,2.3,4.6,3.4,7.9,3.4c3.5,0,7-1.2,10.3-3.5c3.4-2.3,7.3-6.2,11.9-11.7c1.3-1.5,2.7-2.2,4.3-2.2c1.4,0,2.5,0.6,3.3,1.9
		s1.2,3,1.2,5.3c0,4.2-1,7.5-3,9.9c-5.6,6.7-11.1,11.6-16.5,14.7c-5.4,3.1-11.2,4.6-17.1,4.6c-8.9,0-15.6-2.3-20.3-6.8
		c-4.7-4.5-7-10.4-7-17.7c0-4.1,0.9-12,2.6-23.7c-5.3,15.7-12.1,27.7-20.3,35.9c-8.2,8.2-17.6,12.3-28.3,12.3
		C310.8,235.6,304,233.1,299.4,228.1z"/>
</g>
</svg>
